HIERARCHY
ROOT Hips
{
	OFFSET -278.121490 93.318451 465.951996
	CHANNELS 6 Xposition Yposition Zposition Zrotation Yrotation Xrotation 
	JOINT LeftUpLeg
	{
		OFFSET 0.103457 1.857822 10.548516
		CHANNELS 3 Zrotation Yrotation Xrotation
		JOINT LeftLeg
		{
			OFFSET 43.500008 -0.000031 0.000015
			CHANNELS 3 Zrotation Yrotation Xrotation
			JOINT LeftFoot
			{
				OFFSET 42.372192 0.000027 -0.000009
				CHANNELS 3 Zrotation Yrotation Xrotation
				JOINT LeftToe
				{
					OFFSET 17.299999 0.000000 -0.000004
					CHANNELS 3 Zrotation Yrotation Xrotation
					End Site
					{
						OFFSET 0.000000 0.000000 0.000000
					}
				}
			}
		}
	}
	JOINT RightUpLeg
	{
		OFFSET 0.103460 1.857822 -10.548513
		CHANNELS 3 Zrotation Yrotation Xrotation
		JOINT RightLeg
		{
			OFFSET 43.500038 -0.000015 -0.000002
			CHANNELS 3 Zrotation Yrotation Xrotation
			JOINT RightFoot
			{
				OFFSET 42.372269 -0.000019 0.000014
				CHANNELS 3 Zrotation Yrotation Xrotation
				JOINT RightToe
				{
					OFFSET 17.300005 -0.000001 0.000011
					CHANNELS 3 Zrotation Yrotation Xrotation
					End Site
					{
						OFFSET 0.000000 0.000000 0.000000
					}
				}
			}
		}
	}
	JOINT Spine
	{
		OFFSET 6.901966 -2.603743 -0.000003
		CHANNELS 3 Zrotation Yrotation Xrotation
		JOINT Spine1
		{
			OFFSET 12.588103 0.000012 0.000008
			CHANNELS 3 Zrotation Yrotation Xrotation
			JOINT Spine2
			{
				OFFSET 12.343199 0.000004 0.000007
				CHANNELS 3 Zrotation Yrotation Xrotation
				JOINT Neck
				{
					OFFSET 25.832901 -0.000008 -0.000001
					CHANNELS 3 Zrotation Yrotation Xrotation
					JOINT Head
					{
						OFFSET 11.766611 0.000029 -0.000004
						CHANNELS 3 Zrotation Yrotation Xrotation
						End Site
						{
							OFFSET 0.000000 0.000000 0.000000
						}
					}
				}
				JOINT LeftShoulder
				{
					OFFSET 19.745907 -1.480370 6.000077
					CHANNELS 3 Zrotation Yrotation Xrotation
					JOINT LeftArm
					{
						OFFSET 11.284128 -0.000004 -0.000015
						CHANNELS 3 Zrotation Yrotation Xrotation
						JOINT LeftForeArm
						{
							OFFSET 33.000065 0.000010 0.000016
							CHANNELS 3 Zrotation Yrotation Xrotation
							JOINT LeftHand
							{
								OFFSET 25.200001 0.000010 0.000006
								CHANNELS 3 Zrotation Yrotation Xrotation
								End Site
								{
									OFFSET 0.000000 0.000000 0.000000
								}
							}
						}
					}
				}
				JOINT RightShoulder
				{
					OFFSET 19.746094 -1.480385 -6.000086
					CHANNELS 3 Zrotation Yrotation Xrotation
					JOINT RightArm
					{
						OFFSET 11.284142 -0.000011 -0.000013
						CHANNELS 3 Zrotation Yrotation Xrotation
						JOINT RightForeArm
						{
							OFFSET 33.000092 0.000004 0.000015
							CHANNELS 3 Zrotation Yrotation Xrotation
							JOINT RightHand
							{
								OFFSET 25.199759 0.000141 0.000412
								CHANNELS 3 Zrotation Yrotation Xrotation
								End Site
								{
									OFFSET 0.000000 0.000000 0.000000
								}
							}
						}
					}
				}
			}
		}
	}
}
MOTION
Frames: 5
Frame Time: 0.033333
153.023193 88.250298 541.002014 92.048335 -5.939726 -118.627682 167.007004 8.569505 -177.123280 -6.093944 -1.592838 0.141652 63.848731 0.397231 1.044713 21.454551 0.003089 -0.000000 -166.387452 -5.618292 172.978789 -20.387920 0.916123 -9.620748 91.189214 4.391158 -13.517727 21.454560 -0.003107 -0.000017 9.052891 0.117527 0.665648 8.094047 0.188232 1.337856 7.776041 0.196435 1.336703 10.385328 8.546529 9.213320 -32.037764 -9.971923 15.663109 -155.449191 -81.692409 -26.438112 -13.927558 60.973734 31.696097 -35.900103 -17.929923 1.545542 -1.308076 -6.385835 9.963533 168.585215 73.102784 -10.329989 -2.186279 -54.207451 -43.351252 -37.116730 17.828160 -1.595628 5.943319 -5.193453 -20.242493 
154.195694 88.447563 539.555115 90.826319 -6.222314 -120.548276 167.095250 9.039801 -176.324967 -7.136331 -2.296680 -1.632465 63.905415 2.194988 2.284601 21.454555 0.003089 0.000002 -165.915800 -4.446496 172.741017 -20.929129 0.351606 -9.857531 90.641610 4.475516 -13.730472 21.454560 -0.003110 -0.000018 9.046455 -0.358088 0.508137 8.076967 -0.750749 0.990085 7.758905 -0.744620 0.994601 10.660162 9.023305 10.051609 -32.943433 -10.545588 16.992689 -156.449841 -81.724525 -25.423895 -13.971897 60.732198 32.526443 -34.707531 -17.531260 1.491925 -1.555088 -4.083928 12.198276 169.152995 72.966166 -9.752700 -1.780478 -54.347819 -45.363927 -40.480509 18.134099 -1.702852 4.536195 -4.819967 -21.967608 
155.426804 88.665100 538.061829 89.614472 -6.421208 -122.019294 166.853721 9.465799 -177.997817 -9.043465 -2.738349 -1.475815 65.936604 2.277113 2.912584 21.454553 0.003079 0.000001 -165.958461 -3.369806 172.934994 -22.234764 -0.062213 -10.138657 89.782659 4.599256 -13.626904 21.454560 -0.003102 -0.000018 9.010379 -0.858628 0.414576 8.002946 -1.743881 0.768921 7.684738 -1.739053 0.779446 10.648207 9.791285 10.682762 -33.684157 -10.699111 17.907016 -158.624081 -82.156999 -23.214292 -14.672957 60.477452 32.860863 -33.306127 -17.176442 1.437641 -1.344832 -2.064311 13.543394 170.213806 73.020145 -8.663093 -1.661232 -54.798242 -47.212511 -42.688648 18.238714 -1.771133 3.713556 -2.056168 -22.483016 
156.769104 88.977211 536.522278 88.790922 -6.327906 -123.481692 167.111629 9.596689 179.865778 -10.106120 -2.657203 -0.938948 67.671062 2.117611 3.689715 21.454553 0.003084 -0.000001 -166.395662 -2.647402 173.350761 -23.976367 -0.284361 -10.642960 88.056800 4.831817 -13.254172 21.454558 -0.003109 -0.000017 8.913429 -1.210631 0.453921 7.806963 -2.449082 0.825434 7.488588 -2.443923 0.840218 10.628574 9.952276 11.008515 -34.015377 -10.600388 18.260958 -161.339081 -82.375298 -20.463047 -15.855261 60.192470 33.012398 -31.922771 -16.748261 1.380519 -0.799170 -0.800226 14.305288 169.127505 73.617514 -9.755711 -0.553748 -55.701589 -48.089825 -43.769170 18.078254 -1.791796 2.834680 0.117850 -23.695606 
158.218597 89.351967 534.918213 88.400345 -6.157701 -125.325939 167.909149 9.283794 178.271776 -10.562315 -2.647138 -0.870740 69.264429 2.184228 4.205349 21.454553 0.003088 -0.000001 -166.947568 -1.950000 174.297521 -26.013790 -0.541949 -11.893245 85.844208 5.724212 -12.005796 21.454557 -0.003103 -0.000018 8.792137 -1.456654 0.630417 7.558895 -2.951307 1.164862 7.240407 -2.944078 1.182683 10.801760 9.575338 11.241567 -33.936253 -10.211870 18.247928 -161.841619 -82.239364 -19.955996 -17.023406 59.981854 32.760569 -31.140441 -16.446769 1.345070 -0.125313 0.058667 15.405720 166.410032 74.329090 -12.510394 1.000871 -56.459279 -48.446583 -44.355850 17.990855 -1.803275 3.154437 0.467866 -23.323708 
